<svg id="e45c9cb3-351d-4bb0-bfc4-e1627a952df1" data-name="Ebene 1" xmlns="http://www.w3.org/2000/svg" viewBox="0 0 154.11 141.2"><defs><style>.f8977853-e7d8-406f-8f7f-c7511b7be9be{fill:#fff;}.f5bdd0b3-fafd-4117-85b4-5d4f7bd9d272{fill:#946343;}.af560a6f-2742-4276-9228-89226cd6943f{fill:#634128;}.f96b2eb2-2184-4a56-b945-852f17c5dc6d{fill:#7c8c8a;}.fa870142-6482-454a-bfee-e555defc462e{fill:#db8a77;}.f4b0432f-a926-49a5-bbe4-4d64ffaba23a{fill:#a0a7a6;}.aa032bb0-6aba-445e-98b6-69cc80fb49f7{fill:#327b7f;}.f22f5605-10ee-4dee-bc66-063b30a22907{fill:#459da2;}.e3cfba8c-c5d5-4e68-a8dd-7276f02c56a0,.ec1da00a-310f-4e09-b7c7-bcd39888e732{fill:none;stroke-miterlimit:10;stroke-width:0.25px;}.e3cfba8c-c5d5-4e68-a8dd-7276f02c56a0{stroke:#7c8c8a;}.b92b6094-911d-4379-936f-2f0f1edf8e39{fill:#5282bf;}.ec1da00a-310f-4e09-b7c7-bcd39888e732{stroke:#1d1d1b;}</style></defs><g id="bfba6ada-d674-487b-bd3b-46ab1fa774b8" data-name="8D7GS2.tif"><path class="f8977853-e7d8-406f-8f7f-c7511b7be9be" d="M99.33,16.07l-.21.21-.42.41-.21.2-.21.21-.21.21-.2.21-.21.21-.2.21a1.07,1.07,0,0,0-.49.56l-.2.21-.21.21c0,.08-.1.21-.08.23s.17,0,.22-.09l.2-.22.2-.21.5-.55.21-.21.2-.21.2-.2.22-.22.2-.21.21-.19.42-.43.21-.22.09-.22Zm11.79-8.41.4-.22.41-.21a1.13,1.13,0,0,0,.87-.69l-1,.56-.41.21-.41.22-.26.16a1.32,1.32,0,0,0-.8.45l-.16.17c.11.13.2,0,.29,0a1.46,1.46,0,0,0,.8-.45Zm3.19-1.81c-.15,0-.42.06-.33.23s.31,0,.45-.08.39,0,.27-.25S114.42,5.73,114.31,5.85ZM109,8.9c.24-.07.47-.14.56-.44-.34-.09-.51.12-.7.29s-.16.17-.15.18S108.93,9,109,8.9ZM91.19,25.84c-.18.18-.43.34-.28.67.28-.07.34-.32.42-.53l.16-.26a2.12,2.12,0,0,0,.67-1c.11-.08.21-.21.08-.3s-.17.07-.21.17a2.43,2.43,0,0,0-.66,1Zm-.42,1-.06-.07-.06.07.09.07Z"/><path class="f5bdd0b3-fafd-4117-85b4-5d4f7bd9d272" d="M119.43,49.37c-1.23,2.47-2.41,5-3.44,7.51a2.83,2.83,0,0,0-.6,1.26,3.08,3.08,0,0,1-1.14.46,65.4,65.4,0,0,1-6.67,1c-5.74.66-11.52,1-17.29,1.23-5,.24-10,.35-15.07.42s-10.06,0-15.09,0c-5.93.05-11.86-.1-17.78-.29-6.54-.2-13.08-.52-19.59-1.17-3.1-.31-6.19-.65-9.25-1.25a1.48,1.48,0,0,1-1.19-.83c-.22-.42-.25-.93-.61-1.28-1-2.54-2.25-5-3.41-7.46-.34-.91-.64-1.84-1.9-1.8a.77.77,0,0,1-.61-.34c-1.49-1.94-3-3.87-4.5-5.81a.94.94,0,0,1,.85-.14,2.21,2.21,0,0,0,.48.15c2.66,0,5.31.28,8,.39,2.87.13,5.73.3,8.6.42,3.59.14,7.18.29,10.78.41l11.61.42c3.84.13,7.69.18,11.53.2,9.09.06,18.17.23,27.25-.16,1.64,0,1.65.06,2.07-1.53A19.55,19.55,0,0,1,83.51,38l.16,0,.38,1.39-.84,2.9c-.07.22-.08.4.19.48,2.52-.06,5-.07,7.56-.19q4.35-.21,8.69-.34c5.45-.17,10.9-.48,16.35-.67q3-.1,5.9-.29a14.32,14.32,0,0,0,3.69-.31,1.51,1.51,0,0,1,1,.11c-1.4,1.82-2.81,3.6-4.16,5.42a1.87,1.87,0,0,1-1.84.86c-.09-.1-.15,0-.2,0h-.07c-3.13.27-6.25.58-9.38.81-4.34.31-8.69.62-13,.82-4.87.21-9.75.38-14.63.42-10.72.07-21.44.11-32.15-.19-1.38,0-2.77-.12-4.15-.15-5.85-.1-11.69-.39-17.53-.67-2.31-.1-4.64-.08-7-.26-1.14-.09-2.28-.12-3.41-.19L7.89,47.21a3.2,3.2,0,0,0,1.78.32c4,.55,8,.65,12,1,3.23.3,6.48.45,9.72.63,4.14.23,8.28.49,12.43.62s8.37.35,12.55.39c11,.11,22,.2,33-.2,1.49-.06,3-.09,4.46-.19q6-.37,12-.81,3.09-.24,6.18-.56c2.75-.28,5.49-.6,8.23-.9Z"/><path class="af560a6f-2742-4276-9228-89226cd6943f" d="M80.36,42.75c-9.08.39-18.16.22-27.25.16-3.84,0-7.69-.07-11.53-.2L30,42.29c-3.6-.12-7.19-.27-10.78-.41-2.87-.12-5.73-.29-8.6-.42-2.66-.11-5.31-.35-8-.39a2.21,2.21,0,0,1-.48-.15c5.71-.29,11.42-.62,17.13-.88,15-.67,30.07-1.13,45.12-1.15,5.58,0,11.16.14,16.74.22.24.3.05.58,0,.87C80.84,40.9,80.61,41.82,80.36,42.75Z"/><path class="af560a6f-2742-4276-9228-89226cd6943f" d="M125.59,40.91a14.32,14.32,0,0,1-3.69.31q-2.94.18-5.9.29c-5.45.19-10.9.5-16.35.67q-4.34.14-8.69.34c-2.52.12-5,.13-7.56.19.27-1,.55-2,.82-3.06a2.89,2.89,0,0,0,1.82.69,5.6,5.6,0,0,0-.2.7c0,.28.14.44.38.55a.48.48,0,0,0,.63-.18c.17-.19.3-.43.14-.66a4.14,4.14,0,0,0-.54-.47l.4-.26c.48-.08.75-.51,1.15-.73,10.25.29,20.5.73,30.74,1.21C121,40.61,123.3,40.77,125.59,40.91Z"/><path class="af560a6f-2742-4276-9228-89226cd6943f" d="M120.17,47.53c-2.74.3-5.48.62-8.23.9q-3.09.32-6.18.56-6,.43-12,.81c-1.48.1-3,.13-4.46.19-11,.4-22,.31-33,.2-4.18,0-8.37-.26-12.55-.39s-8.29-.39-12.43-.62c-3.24-.18-6.49-.33-9.72-.63-4-.37-8-.47-12-1a3.2,3.2,0,0,1-1.78-.32l11.19.72c1.13.07,2.27.1,3.41.19,2.31.18,4.64.16,7,.26,5.84.28,11.68.57,17.53.67,1.38,0,2.77.11,4.15.15,10.71.3,21.43.26,32.15.19,4.88,0,9.76-.21,14.63-.42,4.35-.2,8.7-.51,13-.82,3.13-.23,6.25-.54,9.38-.81Z"/><path class="f96b2eb2-2184-4a56-b945-852f17c5dc6d" d="M86,40.34a2.89,2.89,0,0,1-1.82-.69,3.24,3.24,0,0,0-.17-.32c-.12-.46-.25-.93-.38-1.39,0-.34,0-.68.07-1L84,36.5l.81-1,1.07-.43.82,0c.08.47.5.16.71.32,1.45,1.09,1.27,2.45.64,3.88-.4.22-.67.65-1.15.73l-.25-.24A2.44,2.44,0,0,0,87.88,38L86.4,39.66c-.43-.6.15-1.43-.5-2a13.31,13.31,0,0,1,.16,2.59Zm2-3.17h0v.57h0Z"/><path class="f96b2eb2-2184-4a56-b945-852f17c5dc6d" d="M125.17,2.33l-1.24.37-.5-.15c0-.54,0-.88-.74-.67A55.57,55.57,0,0,0,116,4.15l0-.55A52,52,0,0,1,127.36.5c1.16-.21,2.33-.32,3.49-.46.25,0,.78-.11.71.09-.17.41.06.82-.15,1.2s-.48,0-.71,0a2.91,2.91,0,0,1-.31,0l0-.26c.12-.56-.2-.65-.64-.61a33.79,33.79,0,0,0-4.66.86c-.21.05-.52.06-.47.41a.49.49,0,0,0,.6.42A1.09,1.09,0,0,0,125.17,2.33Z"/><path class="fa870142-6482-454a-bfee-e555defc462e" d="M80.36,42.75c.25-.93.48-1.85.74-2.77.08-.29.27-.57,0-.87.58-.43.54-1.17.85-1.74h.43l.52.2.58.4a19.55,19.55,0,0,0-1.08,3.24C82,42.81,82,42.8,80.36,42.75Z"/><path class="f96b2eb2-2184-4a56-b945-852f17c5dc6d" d="M102.27,11.1a50.12,50.12,0,0,1,8.1-5,.43.43,0,0,1,.23.44,8.3,8.3,0,0,1-2,1.34,2.44,2.44,0,0,0-.86.7c0,.55-.75.24-.88.68-.92-.28-1.35.62-2,.85-.33,0-.57.08-.6.45v0c-.35-.09-.49,0-.41.4l0,0c-.2,0-.37,0-.41.23l0,0-1.06.17Z"/><path class="f96b2eb2-2184-4a56-b945-852f17c5dc6d" d="M88.08,26.51a23.5,23.5,0,0,1,4.42-6c0,.2.09.31.23.42-1.14,1.62-2.29,3.24-3.4,4.89-.21.31-.71.7-.08,1.12,0,.2-.19.44.11.59-.53.15-.91.39-.62,1-.29-.12-.4.17-.6.27a.55.55,0,0,0-.26-.52c.2-.36.39-.73.61-1.06C88.87,26.74,88.62,26.55,88.08,26.51Z"/><path class="fa870142-6482-454a-bfee-e555defc462e" d="M83,34.83l.79-1.89a1.2,1.2,0,0,1,1-.77l.81.54.48.06.14.48c-.39-.13-.78-.17-.95.29a7.48,7.48,0,0,0-.73,1.89l-.31,0-.67-.27Z"/><path class="f4b0432f-a926-49a5-bbe4-4d64ffaba23a" d="M110.6,6.52a.43.43,0,0,0-.23-.44A24.44,24.44,0,0,1,116,3.6l0,.55c-.37.53,0,.67.41.66a3.43,3.43,0,0,0,.79-.21l.12.16a6.11,6.11,0,0,0-1.21.57c-.76.56-1.24.53-1.41-.5-.47-.25-.91-.37-1.2.25h0c-.19,0-.38-.07-.42.21h0c-.19,0-.39-.08-.42.21h0c-.25,0-.51-.13-.63.22h0c-.14,0-.24,0-.21.21h0c-.25,0-.52-.15-.62.21S110.85,6.44,110.6,6.52Z"/><path class="f96b2eb2-2184-4a56-b945-852f17c5dc6d" d="M93.56,19.22a26.16,26.16,0,0,1,5.18-5.17.45.45,0,0,0,.28.44c-.19.36-.8.44-.69,1h0c-.46,0-.68.16-.63.63h0c-.2,0-.36,0-.42.24l0,0c-.46,0-.68.43-1,.71a23.38,23.38,0,0,1-2.12,2.22Z"/><path class="f96b2eb2-2184-4a56-b945-852f17c5dc6d" d="M85.62,32.7l-.81-.53a30.32,30.32,0,0,1,2.22-4l.51.31a2.56,2.56,0,0,1-.35,1.05C86.63,30.55,86.14,31.63,85.62,32.7Z"/><path class="aa032bb0-6aba-445e-98b6-69cc80fb49f7" d="M89.25,27c-.63-.42-.13-.81.08-1.12,1.11-1.65,2.26-3.27,3.4-4.89l.39-.14v.54C91.75,23.18,90.45,25.05,89.25,27Z"/><path class="f4b0432f-a926-49a5-bbe4-4d64ffaba23a" d="M99,14.49a.45.45,0,0,1-.28-.44,15.87,15.87,0,0,1,3.53-3c0,.08,0,.16,0,.25-.06.42-.42.58-.7.82A4.36,4.36,0,0,0,100,14h0a.51.51,0,0,0-.67.41Z"/><path class="f96b2eb2-2184-4a56-b945-852f17c5dc6d" d="M93.13,21.37c0-.18,0-.36,0-.54.25-.41.43-.88,1-1l.32,0c.08,1.07.63.64,1.26.28-.27.47-.46.85-.7,1.19s-.73.89-1.17.1C93.54,20.92,93.35,21.31,93.13,21.37Z"/><path class="af560a6f-2742-4276-9228-89226cd6943f" d="M94.4,19.8l-.32,0c0-.19.1-.38.16-.56A23.38,23.38,0,0,0,96.36,17c.28-.28.5-.67,1-.71-.22.83-1,1.2-1.49,1.83S94.88,19.26,94.4,19.8Z"/><path class="aa032bb0-6aba-445e-98b6-69cc80fb49f7" d="M100,14a4.36,4.36,0,0,1,1.63-1.85c.28-.24.64-.4.7-.82l1.06-.17c-.54.81-1.47,1.18-2.12,1.86-.26.28-.76.42-.59,1Z"/><path class="f4b0432f-a926-49a5-bbe4-4d64ffaba23a" d="M83,34.83l.57.36c-.67.58-.55,1.59-1.17,2.19H82A4.57,4.57,0,0,1,83,34.83Z"/><path class="f4b0432f-a926-49a5-bbe4-4d64ffaba23a" d="M87.54,28.45,87,28.14a3.62,3.62,0,0,1,1-1.63c.54,0,.79.23.41.78-.22.33-.41.7-.61,1.06Z"/><path class="f4b0432f-a926-49a5-bbe4-4d64ffaba23a" d="M130.35,1.07l0,.26-5.22,1a1.09,1.09,0,0,1,0-.18A35.17,35.17,0,0,1,130.35,1.07Z"/><path class="f4b0432f-a926-49a5-bbe4-4d64ffaba23a" d="M100,14l.68,0c.71.29.72.65.12,1.1-.26.2-.5.42-.75.63l-.15-.14c.2-.43,0-.7-.32-1,.14-.21.28-.41.43-.61Z"/><path class="f4b0432f-a926-49a5-bbe4-4d64ffaba23a" d="M123.43,2.55l.5.15L119,4.11,118.89,4A20.11,20.11,0,0,1,123.43,2.55Z"/><path class="f4b0432f-a926-49a5-bbe4-4d64ffaba23a" d="M88.74,28.6c-.29-.64.09-.88.62-1,.78.21.39.81.34,1.23s-.33.58-.51.86L89,29.52C89.35,29.09,88.85,28.9,88.74,28.6Z"/><path class="f4b0432f-a926-49a5-bbe4-4d64ffaba23a" d="M94.24,19.26c-.06.18-.11.37-.16.56-.54.13-.72.6-1,1l-.38.14c-.14-.11-.26-.22-.23-.42a2.05,2.05,0,0,1,1.06-1.33Z"/><path class="f4b0432f-a926-49a5-bbe4-4d64ffaba23a" d="M87.36,35.41c-.21-.16-.63.15-.71-.32.4-.08.36-.42.45-.71a12.55,12.55,0,0,1,1.16-3.13l.13.1c-.32,1-.64,2-1,3A1.53,1.53,0,0,0,87.36,35.41Z"/><path class="f4b0432f-a926-49a5-bbe4-4d64ffaba23a" d="M106.85,9.24c.13-.44.84-.13.88-.68.09.34,1,.17.56.83-.53-.42-.91-.09-1.28.27C106.82,9.57,106.85,9.4,106.85,9.24Z"/><path class="f96b2eb2-2184-4a56-b945-852f17c5dc6d" d="M107,9.66c.37-.36.75-.69,1.28-.27a1.62,1.62,0,0,1-1.12.66C106.74,10.11,107,9.81,107,9.66Z"/><path class="f4b0432f-a926-49a5-bbe4-4d64ffaba23a" d="M119,4.11a5.6,5.6,0,0,1-1.66.64l-.12-.15A4.53,4.53,0,0,1,118.89,4Z"/><path class="af560a6f-2742-4276-9228-89226cd6943f" d="M99,14.49l.3-.06c0,.08,0,.16,0,.24l-1,.82C98.22,14.93,98.83,14.85,99,14.49Z"/><path class="f4b0432f-a926-49a5-bbe4-4d64ffaba23a" d="M89,30.08a2.75,2.75,0,0,1-.59,1.27l-.13-.1a4.1,4.1,0,0,1,.55-1.31Z"/><path class="aa032bb0-6aba-445e-98b6-69cc80fb49f7" d="M113.53,5.08c.29-.62.73-.5,1.2-.25Z"/><path class="f4b0432f-a926-49a5-bbe4-4d64ffaba23a" d="M91.37,25.59a2.47,2.47,0,0,1,.66-1,1.59,1.59,0,0,0,.13.13,2.12,2.12,0,0,1-.67,1Z"/><path class="af560a6f-2742-4276-9228-89226cd6943f" d="M97.71,16.12c0-.47.17-.67.63-.63A1.21,1.21,0,0,1,97.71,16.12Z"/><path class="f4b0432f-a926-49a5-bbe4-4d64ffaba23a" d="M110.86,7.82a1.46,1.46,0,0,1-.8.45l-.13-.13a1.32,1.32,0,0,1,.8-.45Z"/><path class="aa032bb0-6aba-445e-98b6-69cc80fb49f7" d="M99.33,14.67c0-.08,0-.16,0-.24A.51.51,0,0,1,100,14c-.15.2-.29.4-.43.61Z"/><path class="f4b0432f-a926-49a5-bbe4-4d64ffaba23a" d="M111.81,7.1l1-.56a1.13,1.13,0,0,1-.87.69Z"/><path class="f4b0432f-a926-49a5-bbe4-4d64ffaba23a" d="M91.33,26c-.08.21-.14.46-.42.53-.15-.33.1-.49.28-.67Z"/><path class="f4b0432f-a926-49a5-bbe4-4d64ffaba23a" d="M108.88,8.75c.19-.17.36-.38.7-.29-.09.3-.32.37-.56.44Z"/><path class="aa032bb0-6aba-445e-98b6-69cc80fb49f7" d="M104.2,10.54c0-.37.27-.47.6-.45C104.71,10.39,104.56,10.6,104.2,10.54Z"/><path class="f4b0432f-a926-49a5-bbe4-4d64ffaba23a" d="M97,18.5a1.14,1.14,0,0,1,.5-.56l.14.14-.5.55Z"/><path class="aa032bb0-6aba-445e-98b6-69cc80fb49f7" d="M103.8,11c-.08-.36.06-.49.41-.4C104.22,10.84,104,10.88,103.8,11Z"/><path class="f4b0432f-a926-49a5-bbe4-4d64ffaba23a" d="M114.43,6c-.14.09-.33.32-.45.08s.18-.2.33-.23Z"/><path class="aa032bb0-6aba-445e-98b6-69cc80fb49f7" d="M111.25,6.12c.1-.36.37-.25.62-.21C111.74,6.23,111.48,6.14,111.25,6.12Z"/><path class="aa032bb0-6aba-445e-98b6-69cc80fb49f7" d="M112.07,5.72c.12-.35.38-.27.63-.22C112.54,5.71,112.37,5.89,112.07,5.72Z"/><path class="f4b0432f-a926-49a5-bbe4-4d64ffaba23a" d="M99.26,16.41l-.42.43a1,1,0,0,0-.14-.15l.42-.41Z"/><path class="f4b0432f-a926-49a5-bbe4-4d64ffaba23a" d="M114.31,5.85c.11-.12.3-.26.39-.1s-.18.16-.27.25Z"/><path class="f4b0432f-a926-49a5-bbe4-4d64ffaba23a" d="M111.4,7.31l.41-.21.12.13-.41.21Z"/><path class="aa032bb0-6aba-445e-98b6-69cc80fb49f7" d="M112.7,5.5c0-.29.23-.24.42-.21C113.06,5.52,112.88,5.52,112.7,5.5Z"/><path class="f4b0432f-a926-49a5-bbe4-4d64ffaba23a" d="M92,24.59c0-.1,0-.29.21-.17s0,.22-.08.3A1.59,1.59,0,0,1,92,24.59Z"/><path class="aa032bb0-6aba-445e-98b6-69cc80fb49f7" d="M113.11,5.29c0-.28.23-.24.42-.21C113.48,5.32,113.3,5.32,113.11,5.29Z"/><path class="f4b0432f-a926-49a5-bbe4-4d64ffaba23a" d="M111,7.53l.41-.22.12.13-.4.22A1.59,1.59,0,0,1,111,7.53Z"/><path class="af560a6f-2742-4276-9228-89226cd6943f" d="M97.29,16.35c.06-.23.22-.27.42-.24C97.62,16.28,97.57,16.52,97.29,16.35Z"/><path class="f4b0432f-a926-49a5-bbe4-4d64ffaba23a" d="M89.19,29.66l-.21.42-.17-.14.21-.42Z"/><path class="aa032bb0-6aba-445e-98b6-69cc80fb49f7" d="M103.35,11.16c0-.25.21-.26.41-.23C103.69,11.12,103.59,11.27,103.35,11.16Z"/><path class="f4b0432f-a926-49a5-bbe4-4d64ffaba23a" d="M90.77,26.8l0,.07-.09-.07.06-.07Z"/><path class="f4b0432f-a926-49a5-bbe4-4d64ffaba23a" d="M91.19,25.84l.18-.24.12.12-.16.26Z"/><path class="f4b0432f-a926-49a5-bbe4-4d64ffaba23a" d="M96.7,19.06c0,.09-.12.18-.22.09s0-.15.08-.23A1.85,1.85,0,0,0,96.7,19.06Z"/><path class="f4b0432f-a926-49a5-bbe4-4d64ffaba23a" d="M96.9,18.84l-.2.22a1.85,1.85,0,0,1-.14-.14l.21-.21Z"/><path class="f4b0432f-a926-49a5-bbe4-4d64ffaba23a" d="M96.77,18.71l.2-.21.13.13-.2.21Z"/><path class="f4b0432f-a926-49a5-bbe4-4d64ffaba23a" d="M97.81,17.87l-.21.21-.14-.14.2-.21Z"/><path class="f4b0432f-a926-49a5-bbe4-4d64ffaba23a" d="M98,17.66l-.2.21-.15-.14.21-.21A.93.93,0,0,0,98,17.66Z"/><path class="f4b0432f-a926-49a5-bbe4-4d64ffaba23a" d="M98.43,17.25l-.22.21-.14-.15.21-.21Z"/><path class="f4b0432f-a926-49a5-bbe4-4d64ffaba23a" d="M98.28,17.1l.21-.21.14.14a2.09,2.09,0,0,0-.2.22Z"/><path class="f4b0432f-a926-49a5-bbe4-4d64ffaba23a" d="M98.49,16.89l.21-.2a1,1,0,0,1,.14.15l-.21.19Z"/><path class="f4b0432f-a926-49a5-bbe4-4d64ffaba23a" d="M99.48,16.19l-.22.22-.14-.13.21-.21A.44.44,0,0,0,99.48,16.19Z"/><path class="f4b0432f-a926-49a5-bbe4-4d64ffaba23a" d="M99.33,16.07l.23-.1a2,2,0,0,0-.08.22A.44.44,0,0,1,99.33,16.07Z"/><path class="f4b0432f-a926-49a5-bbe4-4d64ffaba23a" d="M100,15.73c-.08.09-.15.2-.27.06s.08-.13.12-.2Z"/><path class="f4b0432f-a926-49a5-bbe4-4d64ffaba23a" d="M109,8.9c-.09.08-.19.16-.29,0s.1-.11.15-.18Z"/><path class="f4b0432f-a926-49a5-bbe4-4d64ffaba23a" d="M110.06,8.27c-.09.09-.18.17-.29,0l.16-.17Z"/><path class="af560a6f-2742-4276-9228-89226cd6943f" d="M120.39,47.34c0-.09.11-.14.2,0l-.1,0Z"/><path class="f4b0432f-a926-49a5-bbe4-4d64ffaba23a" d="M110.73,7.69l.26-.16a1.59,1.59,0,0,0,.13.13l-.26.16Z"/><path class="aa032bb0-6aba-445e-98b6-69cc80fb49f7" d="M111.87,5.92c0-.17.07-.22.21-.21C112.17,6,112,5.91,111.87,5.92Z"/><path class="f4b0432f-a926-49a5-bbe4-4d64ffaba23a" d="M98.21,17.46l-.2.2a.93.93,0,0,1-.14-.14l.2-.21Z"/><path class="f22f5605-10ee-4dee-bc66-063b30a22907" d="M11.71,56.47c.36.35.39.86.61,1.28a10.77,10.77,0,0,1-2.31.41,15.42,15.42,0,0,0-3.51.72,354,354,0,0,0,112.63,0,19.18,19.18,0,0,0-3.74-.73,2.83,2.83,0,0,1,.6-1.26,61,61,0,0,1,7.21,1.35,7.57,7.57,0,0,1,2.41.57c-2,1.1-25.64,4.69-31,5.2C84,65,73.42,65.67,62.8,65.69A296,296,0,0,1,31.15,64,255.41,255.41,0,0,1,0,58.83,116.68,116.68,0,0,1,11.71,56.47Z"/><path class="aa032bb0-6aba-445e-98b6-69cc80fb49f7" d="M115.39,58.14a19.18,19.18,0,0,1,3.74.73,354,354,0,0,1-112.63,0A15.42,15.42,0,0,1,10,58.16a10.77,10.77,0,0,0,2.31-.41,1.48,1.48,0,0,0,1.19.83c3.06.6,6.15.94,9.25,1.25,6.51.65,13.05,1,19.59,1.17,5.92.19,11.85.34,17.78.29,5,0,10.07,0,15.09,0s10-.18,15.07-.42c5.77-.27,11.55-.57,17.29-1.23a65.4,65.4,0,0,0,6.67-1A3.08,3.08,0,0,0,115.39,58.14Z"/><path class="fa870142-6482-454a-bfee-e555defc462e" d="M84.05,39.33a3.24,3.24,0,0,1,.17.32c-.27,1-.55,2-.82,3.06-.27-.08-.26-.26-.19-.48Z"/><path class="af560a6f-2742-4276-9228-89226cd6943f" d="M83.51,38l-.58-.4c.47,0,.53-.45.82-.66h0c0,.34,0,.68-.07,1Z"/><path class="f5bdd0b3-fafd-4117-85b4-5d4f7bd9d272" d="M86.45,40.28a4.14,4.14,0,0,1,.54.47c.16.23,0,.47-.14.66a.48.48,0,0,1-.63.18c-.24-.11-.42-.27-.38-.55a5.6,5.6,0,0,1,.2-.7l0-.09Z"/><path class="f4b0432f-a926-49a5-bbe4-4d64ffaba23a" d="M86.45,40.28l-.39,0a13.31,13.31,0,0,0-.16-2.59c.65.57.07,1.4.5,2l.2.12.25.24Z"/><path class="f5bdd0b3-fafd-4117-85b4-5d4f7bd9d272" d="M86.24,33.25c.18.68-.33,1.2-.41,1.82l-1.07.43-.2-.07a7.48,7.48,0,0,1,.73-1.89C85.46,33.08,85.85,33.12,86.24,33.25Z"/><path class="af560a6f-2742-4276-9228-89226cd6943f" d="M86.6,39.78l-.2-.12L87.88,38A2.44,2.44,0,0,1,86.6,39.78Z"/><path class="af560a6f-2742-4276-9228-89226cd6943f" d="M84.56,35.43l.2.07-.81,1h0a1.22,1.22,0,0,1,.29-1Z"/><path class="af560a6f-2742-4276-9228-89226cd6943f" d="M88,37.17v.58h0v-.57Z"/><path class="af560a6f-2742-4276-9228-89226cd6943f" d="M84,36.5l-.21.42h0c0-.16,0-.35.21-.41Z"/><path class="f96b2eb2-2184-4a56-b945-852f17c5dc6d" d="M84,36.51c-.22.06-.2.25-.21.41-.29.21-.35.69-.82.66l-.52-.2c.62-.6.5-1.61,1.17-2.19l.67.27A1.22,1.22,0,0,0,84,36.51Z"/><path class="aa032bb0-6aba-445e-98b6-69cc80fb49f7" d="M88.14,28.87l-2,3.9-.48-.06c.52-1.08,1-2.16,1.57-3.21a2.56,2.56,0,0,0,.35-1.05l.34-.1A.55.55,0,0,1,88.14,28.87Z"/></g><path class="e3cfba8c-c5d5-4e68-a8dd-7276f02c56a0" d="M131.49,2.15c3.57,1.49,4.85,3.32,5.36,4.71,1.4,3.86-2.32,6.51-1.19,11.34.63,2.66,1.85,2.21,4.35,6.68,1.13,2,3.43,6.14,3.48,10.93,0,4.57-2,5.67-2.68,9.82-1.15,6.74,2.73,12.25,4.33,15.31,3.22,6.12,4.87,16.87-2.91,37.06"/><path class="b92b6094-911d-4379-936f-2f0f1edf8e39" d="M121.62,135.88l-6.4,5.32-2.33-2.8c-.88-4.18-1.5-8.05-2-12.06l5.28-4.39,6.66,8,1.55-1.29,2.42,2.92-1.55,1.29L127,135l-3.61,3Zm-5.47-.15,3.27-2.72-4.6-5.53-.18.15c.34,2.6.78,5.32,1.36,7.92Z"/><path class="b92b6094-911d-4379-936f-2f0f1edf8e39" d="M125.14,125.39c-3.59-4.31-3.44-8.67,0-11.57s7.81-2.27,11.4,2.05,3.52,8.75,0,11.67S128.72,129.7,125.14,125.39Zm7.56-6.28c-2.29-2.75-4-3.29-5.11-2.41s-.84,2.71,1.44,5.46,4.11,3.38,5.17,2.5S135,121.87,132.7,119.11Z"/><path class="b92b6094-911d-4379-936f-2f0f1edf8e39" d="M148.79,113.29l-6.4,5.32-2.33-2.8c-.88-4.18-1.5-8-2-12.06l5.28-4.39,6.66,8,1.55-1.29,2.43,2.92-1.55,1.28,1.72,2.08-3.6,3Zm-5.47-.14,3.27-2.72-4.6-5.54-.18.15c.34,2.6.78,5.33,1.36,7.93Z"/><path class="ec1da00a-310f-4e09-b7c7-bcd39888e732" d="M142.19,97.44c-.06.39.41.44.54.36a.39.39,0,0,0,.07-.58c-.14-.13-.41,0-.54,0a1.33,1.33,0,0,0-.45,1.36c.16.94,1.2,1.62,1.56,1.44a.31.31,0,0,0,.18-.28c0-.13-.17-.19-.2-.2"/></svg>