<svg width="90" height="26" viewBox="0 0 90 26" fill="none" xmlns="http://www.w3.org/2000/svg">
<path fill-rule="evenodd" clip-rule="evenodd" d="M14.4746 0.5C12.2808 0.5 10.5095 2.29288 10.5095 4.49521C10.5095 5.92335 11.2536 7.1759 12.3725 7.88199V9.74539H5.08509C3.98144 9.74539 3.09469 10.6461 3.09469 11.7487V13.0527H2.43962C1.33598 13.0527 0.449219 13.9534 0.449219 15.056V20.3928C0.449219 21.4954 1.33598 22.3961 2.43962 22.3961H3.09469V23.7001C3.09469 24.8027 3.98144 25.7034 5.08509 25.7034H23.9387C25.0424 25.7034 25.9291 24.8027 25.9291 23.7001V22.3961H26.5097C27.6133 22.3961 28.5001 21.4954 28.5001 20.3928V15.056C28.5001 13.9534 27.6133 13.0527 26.5097 13.0527H25.9291V11.7487C25.9291 10.6461 25.0424 9.74539 23.9387 9.74539H16.5768V7.88199C17.6956 7.1759 18.4398 5.92335 18.4398 4.49521C18.4398 2.29288 16.6685 0.5 14.4746 0.5ZM11.5095 4.49521C11.5095 2.83702 12.8412 1.5 14.4746 1.5C16.1081 1.5 17.4398 2.83702 17.4398 4.49521C17.4398 5.65142 16.7916 6.65231 15.8431 7.15191L15.5761 7.29254V7.5943C15.5761 7.60497 15.5764 7.61392 15.5766 7.62L15.5768 7.62413V10.2454V10.7454H16.0768H23.9387C24.482 10.7454 24.9291 11.1902 24.9291 11.7487V13.5527V14.0527H25.4291H26.5097C27.0529 14.0527 27.5001 14.4975 27.5001 15.056V20.3928C27.5001 20.9513 27.0529 21.3961 26.5097 21.3961H25.4291H24.9291V21.8961V23.7001C24.9291 24.2586 24.482 24.7034 23.9387 24.7034H5.08509C4.54184 24.7034 4.09469 24.2586 4.09469 23.7001V21.8961V21.3961H3.59469H2.43962C1.89637 21.3961 1.44922 20.9513 1.44922 20.3928V15.056C1.44922 14.4975 1.89637 14.0527 2.43962 14.0527H3.59469H4.09469V13.5527V11.7487C4.09469 11.1902 4.54184 10.7454 5.08509 10.7454H12.8725H13.3725V10.2454V7.62413L13.3727 7.62C13.3729 7.61392 13.3732 7.60497 13.3732 7.5943V7.29254L13.1062 7.15191C12.1577 6.65231 11.5095 5.65142 11.5095 4.49521ZM8.67768 15.3943C8.67768 14.6907 9.24184 14.1279 9.92891 14.1279C10.616 14.1279 11.1801 14.6907 11.1801 15.3943C11.1801 16.0978 10.616 16.6606 9.92891 16.6606C9.24184 16.6606 8.67768 16.0978 8.67768 15.3943ZM9.92891 13.1279C8.68144 13.1279 7.67768 14.1465 7.67768 15.3943C7.67768 16.642 8.68144 17.6606 9.92891 17.6606C11.1764 17.6606 12.1801 16.642 12.1801 15.3943C12.1801 14.1465 11.1764 13.1279 9.92891 13.1279ZM17.6946 15.3943C17.6946 14.6907 18.2588 14.1279 18.9459 14.1279C19.6329 14.1279 20.1971 14.6907 20.1971 15.3943C20.1971 16.0978 19.6329 16.6606 18.9459 16.6606C18.2588 16.6606 17.6946 16.0978 17.6946 15.3943ZM18.9459 13.1279C17.6984 13.1279 16.6946 14.1465 16.6946 15.3943C16.6946 16.642 17.6984 17.6606 18.9459 17.6606C20.1933 17.6606 21.1971 16.642 21.1971 15.3943C21.1971 14.1465 20.1933 13.1279 18.9459 13.1279ZM13.0744 20.8699V20.2915H15.8749V20.8699H13.0744ZM12.8553 19.2915C12.4201 19.2915 12.0744 19.6464 12.0744 20.0748V21.0866C12.0744 21.515 12.4201 21.8699 12.8553 21.8699H16.094C16.5292 21.8699 16.8749 21.515 16.8749 21.0866V20.0748C16.8749 19.6464 16.5292 19.2915 16.094 19.2915H12.8553ZM47.3378 18.9492C47.3378 20.1846 46.3612 21 44.8524 21H41.2733V13.9541H44.7352C46.1757 13.9541 47.0204 14.6133 47.0204 15.7119C47.0204 16.5225 46.4052 17.1328 45.5897 17.2354V17.2744C46.5419 17.2988 47.3378 18.0166 47.3378 18.9492ZM44.1737 15.375H43.3436V16.7764H44.1444C44.6767 16.7764 45.0087 16.498 45.0087 16.0732C45.0087 15.6387 44.6962 15.375 44.1737 15.375ZM43.3436 17.9629V19.5791H44.2274C44.8671 19.5791 45.2333 19.291 45.2333 18.7588C45.2333 18.2559 44.8622 17.9629 44.2421 17.9629H43.3436ZM55.6768 21H53.4698L53.1036 19.5986H50.9552L50.589 21H48.4796L50.7794 13.9541H53.377L55.6768 21ZM52.0489 15.5801H52.0099L51.3311 18.1387H52.7276L52.0489 15.5801ZM59.1819 13.9541V21H57.1116V13.9541H59.1819ZM64.6157 15.5996V21H62.5454V15.5996H60.6899V13.9541H66.4712V15.5996H64.6157ZM74.0436 18.9492C74.0436 20.1846 73.0671 21 71.5583 21H67.9792V13.9541H71.4411C72.8815 13.9541 73.7263 14.6133 73.7263 15.7119C73.7263 16.5225 73.111 17.1328 72.2956 17.2354V17.2744C73.2477 17.2988 74.0436 18.0166 74.0436 18.9492ZM70.8796 15.375H70.0495V16.7764H70.8503C71.3825 16.7764 71.7145 16.498 71.7145 16.0732C71.7145 15.6387 71.402 15.375 70.8796 15.375ZM70.0495 17.9629V19.5791H70.9333C71.5729 19.5791 71.9392 19.291 71.9392 18.7588C71.9392 18.2559 71.5681 17.9629 70.9479 17.9629H70.0495ZM75.3563 17.4795C75.3563 15.2285 76.7284 13.832 78.9061 13.832C81.0839 13.832 82.4559 15.2285 82.4559 17.4795C82.4559 19.7305 81.0839 21.1221 78.9061 21.1221C76.7235 21.1221 75.3563 19.7305 75.3563 17.4795ZM80.3466 17.4795C80.3466 16.2588 79.7704 15.4824 78.9061 15.4824C78.0419 15.4824 77.4657 16.2588 77.4657 17.4795C77.4657 18.6953 78.037 19.4717 78.9061 19.4717C79.7753 19.4717 80.3466 18.6953 80.3466 17.4795ZM87.377 15.5996V21H85.3067V15.5996H83.4513V13.9541H89.2325V15.5996H87.377Z" fill="#303030"/>
</svg>
