<svg width="172" height="172" viewBox="0 0 172 172" fill="none" xmlns="http://www.w3.org/2000/svg">
<path fill-rule="evenodd" clip-rule="evenodd" d="M86 172C133.496 172 172 133.496 172 86C172 38.5035 133.496 0 86 0C38.5035 0 0 38.5035 0 86C0 133.496 38.5035 172 86 172ZM96.5 60C93.7385 60 91.5 57.7615 91.5 55C91.5 52.2385 93.7385 50 96.5 50H115C117.761 50 120 52.2385 120 55V75C120 77.7615 117.761 80 115 80C112.239 80 110 77.7615 110 75V67.071L89.0355 88.0355C87.0829 89.9882 83.9171 89.9882 81.9645 88.0355C80.0118 86.0829 80.0118 82.9171 81.9645 80.9645L102.929 60H96.5ZM55 64.5C55 61.1863 57.6863 58.5 61 58.5H84.5C87.2615 58.5 89.5 60.7385 89.5 63.5C89.5 66.2615 87.2615 68.5 84.5 68.5H65V108H104.5V87.5C104.5 84.7385 106.739 82.5 109.5 82.5C112.261 82.5 114.5 84.7385 114.5 87.5V112C114.5 115.314 111.814 118 108.5 118H61C57.6863 118 55 115.314 55 112V64.5Z" fill="#5A84C6"/>
</svg>
